<svg width="184" height="48" viewBox="0 0 184 48" fill="none" xmlns="http://www.w3.org/2000/svg">
<mask id="mask0_726_1297" style="mask-type:alpha" maskUnits="userSpaceOnUse" x="0" y="0" width="184" height="48">
<rect width="184" height="48" fill="#C4C4C4"/>
</mask>
<g mask="url(#mask0_726_1297)">
<path d="M55.9808 38.405C54.4688 38.405 53.1998 38.1485 52.1737 37.6355C51.1747 37.1225 50.3512 36.4745 49.7032 35.6914V36.9875C49.7032 37.2845 49.5952 37.5275 49.3791 37.7165C49.1901 37.9055 48.9606 38 48.6906 38H44.114C43.817 38 43.574 37.9055 43.385 37.7165C43.196 37.5275 43.1015 37.2845 43.1015 36.9875V10.2568C43.1015 9.95974 43.196 9.71674 43.385 9.52773C43.574 9.33873 43.817 9.24422 44.114 9.24422H49.0551C49.3521 9.24422 49.5952 9.33873 49.7842 9.52773C49.9732 9.71674 50.0677 9.95974 50.0677 10.2568V18.924C50.7157 18.222 51.5257 17.655 52.4977 17.2229C53.4968 16.7639 54.6578 16.5344 55.9808 16.5344C57.3309 16.5344 58.5189 16.7639 59.5449 17.2229C60.598 17.655 61.489 18.2895 62.218 19.1265C62.947 19.9635 63.514 20.9625 63.919 22.1236C64.3241 23.2846 64.5536 24.5941 64.6076 26.0522C64.6346 26.5652 64.6481 27.0377 64.6481 27.4697C64.6481 27.8747 64.6346 28.3472 64.6076 28.8873C64.5536 30.3993 64.3106 31.7493 63.8785 32.9374C63.4735 34.0984 62.9065 35.0974 62.1775 35.9344C61.4485 36.7445 60.571 37.3655 59.5449 37.7975C58.5189 38.2025 57.3309 38.405 55.9808 38.405ZM53.7938 32.9779C54.7118 32.9779 55.4273 32.7889 55.9403 32.4108C56.4533 32.0328 56.8178 31.5198 57.0339 30.8718C57.2769 30.2238 57.4254 29.5083 57.4794 28.7252C57.5334 27.8882 57.5334 27.0512 57.4794 26.2142C57.4254 25.4312 57.2769 24.7156 57.0339 24.0676C56.8178 23.4196 56.4533 22.9066 55.9403 22.5286C55.4273 22.1506 54.7118 21.9616 53.7938 21.9616C52.9567 21.9616 52.2682 22.1506 51.7282 22.5286C51.1882 22.8796 50.7832 23.3521 50.5132 23.9461C50.2432 24.5131 50.0947 25.1342 50.0677 25.8092C50.0407 26.3222 50.0272 26.8217 50.0272 27.3077C50.0272 27.7937 50.0407 28.3067 50.0677 28.8468C50.0947 29.5758 50.2297 30.2508 50.4727 30.8718C50.7157 31.4928 51.1072 32.0058 51.6472 32.4108C52.1872 32.7889 52.9027 32.9779 53.7938 32.9779ZM67.6394 38C67.3424 38 67.0994 37.9055 66.9104 37.7165C66.7214 37.5275 66.6269 37.2845 66.6269 36.9875V10.2568C66.6269 9.95974 66.7214 9.71674 66.9104 9.52773C67.0994 9.33873 67.3424 9.24422 67.6394 9.24422H72.4186C72.7156 9.24422 72.9586 9.33873 73.1476 9.52773C73.3366 9.71674 73.4311 9.95974 73.4311 10.2568V36.9875C73.4311 37.2845 73.3366 37.5275 73.1476 37.7165C72.9586 37.9055 72.7156 38 72.4186 38H67.6394ZM78.5874 38C78.2904 38 78.0474 37.9055 77.8584 37.7165C77.6694 37.5275 77.5749 37.2845 77.5749 36.9875V17.952C77.5749 17.655 77.6694 17.4119 77.8584 17.2229C78.0474 17.0339 78.2904 16.9394 78.5874 16.9394H83.3665C83.6365 16.9394 83.866 17.0339 84.055 17.2229C84.271 17.4119 84.3791 17.655 84.3791 17.952V36.9875C84.3791 37.2845 84.271 37.5275 84.055 37.7165C83.866 37.9055 83.6365 38 83.3665 38H78.5874ZM78.5469 13.9018C78.2499 13.9018 78.0069 13.8073 77.8179 13.6183C77.6289 13.4293 77.5344 13.1863 77.5344 12.8893V9.28472C77.5344 8.98772 77.6289 8.74471 77.8179 8.5557C78.0069 8.3397 78.2499 8.2317 78.5469 8.2317H83.3665C83.6635 8.2317 83.9065 8.3397 84.0955 8.5557C84.3115 8.74471 84.4196 8.98772 84.4196 9.28472V12.8893C84.4196 13.1863 84.3115 13.4293 84.0955 13.6183C83.9065 13.8073 83.6635 13.9018 83.3665 13.9018H78.5469ZM96.9765 38.405C94.9784 38.405 93.2099 38.0405 91.6708 37.3115C90.1318 36.5825 88.9033 35.5294 87.9852 34.1524C87.0942 32.7484 86.6082 31.0743 86.5272 29.1303C86.5002 28.6982 86.4867 28.1582 86.4867 27.5102C86.4867 26.8352 86.5002 26.2817 86.5272 25.8497C86.6082 23.8786 87.0942 22.2046 87.9852 20.8275C88.8763 19.4235 90.0913 18.357 91.6303 17.628C93.1964 16.8989 94.9784 16.5344 96.9765 16.5344C98.8395 16.5344 100.433 16.8044 101.756 17.3444C103.079 17.8575 104.159 18.5055 104.996 19.2885C105.833 20.0715 106.454 20.8815 106.859 21.7186C107.291 22.5286 107.52 23.2441 107.547 23.8651C107.574 24.1351 107.48 24.3781 107.264 24.5941C107.048 24.7831 106.805 24.8776 106.535 24.8776H101.391C101.094 24.8776 100.865 24.8101 100.703 24.6751C100.541 24.5401 100.392 24.3376 100.257 24.0676C99.9331 23.2306 99.5145 22.6366 99.0015 22.2856C98.5155 21.9346 97.881 21.7591 97.098 21.7591C96.0179 21.7591 95.1809 22.1101 94.5869 22.8121C94.0199 23.5141 93.7094 24.5941 93.6554 26.0522C93.6284 27.1322 93.6284 28.0907 93.6554 28.9278C93.7094 30.4128 94.0199 31.4928 94.5869 32.1678C95.1809 32.8429 96.0179 33.1804 97.098 33.1804C97.935 33.1804 98.5965 33.0049 99.0825 32.6539C99.5685 32.3028 99.9601 31.7088 100.257 30.8718C100.392 30.6018 100.541 30.3993 100.703 30.2643C100.865 30.1293 101.094 30.0618 101.391 30.0618H106.535C106.805 30.0618 107.048 30.1698 107.264 30.3858C107.48 30.5748 107.574 30.8043 107.547 31.0743C107.52 31.5333 107.385 32.0733 107.142 32.6944C106.899 33.2884 106.521 33.9229 106.008 34.5979C105.495 35.2729 104.82 35.9074 103.983 36.5015C103.173 37.0685 102.188 37.5275 101.027 37.8785C99.8656 38.2295 98.5155 38.405 96.9765 38.405ZM110.173 38C109.876 38 109.633 37.9055 109.444 37.7165C109.255 37.5275 109.161 37.2845 109.161 36.9875V10.2568C109.161 9.95974 109.255 9.71674 109.444 9.52773C109.633 9.33873 109.876 9.24422 110.173 9.24422H114.872C115.142 9.24422 115.371 9.33873 115.56 9.52773C115.776 9.71674 115.884 9.95974 115.884 10.2568V23.8246L121.514 17.628C121.676 17.4389 121.851 17.2769 122.04 17.1419C122.229 17.0069 122.499 16.9394 122.85 16.9394H128.277C128.52 16.9394 128.723 17.0339 128.885 17.2229C129.074 17.3849 129.169 17.5874 129.169 17.8305C129.169 17.9385 129.142 18.06 129.088 18.195C129.034 18.33 128.953 18.438 128.845 18.519L121.554 26.3762L129.857 36.461C130.073 36.677 130.181 36.893 130.181 37.109C130.181 37.352 130.087 37.568 129.898 37.757C129.736 37.919 129.52 38 129.25 38H123.701C123.296 38 122.999 37.9325 122.81 37.7975C122.621 37.6355 122.445 37.4735 122.283 37.3115L115.884 29.6163V36.9875C115.884 37.2845 115.776 37.5275 115.56 37.7165C115.371 37.9055 115.142 38 114.872 38H110.173ZM131.598 38C131.301 38 131.058 37.9055 130.869 37.7165C130.68 37.5275 130.585 37.2845 130.585 36.9875V31.8438C130.585 31.5738 130.68 31.3443 130.869 31.1553C131.058 30.9393 131.301 30.8313 131.598 30.8313H136.701C136.998 30.8313 137.241 30.9393 137.43 31.1553C137.646 31.3443 137.754 31.5738 137.754 31.8438V36.9875C137.754 37.2845 137.646 37.5275 137.43 37.7165C137.241 37.9055 136.998 38 136.701 38H131.598Z" fill="white"/>
<path fill-rule="evenodd" clip-rule="evenodd" d="M23.4871 4.74237C23.1936 4.15559 22.6626 3.72306 22.0285 3.55467C21.3943 3.38627 20.7184 3.49827 20.1727 3.86216C19.3816 4.38966 18.7684 5.13872 18.2915 5.87481C17.8012 6.63102 17.3697 7.50688 16.988 8.42675C16.225 10.2658 15.5839 12.4712 15.0685 14.6802C14.4138 17.4859 13.9293 20.4419 13.6648 22.868C12.5574 22.1214 11.9148 21.2845 11.5029 20.4286C10.7538 18.8719 10.5938 16.9204 10.5938 14.3591C10.5938 13.434 10.0366 12.6 9.1819 12.246C8.32724 11.892 7.34347 12.0877 6.68933 12.7418C3.56355 15.8676 2 19.969 2 24.0628C2 28.1567 3.56355 32.2581 6.68933 35.384C12.9418 41.6363 23.0791 41.6363 29.3313 35.384C32.4573 32.2581 34.0208 28.1567 34.0208 24.0628C34.0208 19.969 32.4573 15.8676 29.3313 12.7418C27.9789 11.3892 27.0897 10.4872 26.2491 9.38541C25.4186 8.29688 24.5932 6.95437 23.4871 4.74237ZM22.8622 33.4891C20.1825 36.1687 15.8381 36.1687 13.1585 33.4891C11.8187 32.1492 11.1488 30.3933 11.1488 28.6372C11.1488 28.6372 13.1585 29.7808 16.8669 29.7808C16.8669 27.4936 18.0104 20.632 19.7258 19.4884C20.8694 21.7756 21.5224 22.4455 22.8622 23.7854C24.2021 25.1252 24.872 26.8811 24.872 28.6372C24.872 30.3933 24.2021 32.1492 22.8622 33.4891Z" fill="#7634BF"/>
</g>
</svg>
