<svg width="184" height="48" viewBox="0 0 184 48" fill="none" xmlns="http://www.w3.org/2000/svg">
<mask id="mask0_718_3512" style="mask-type:alpha" maskUnits="userSpaceOnUse" x="0" y="0" width="184" height="48">
<rect width="184" height="48" fill="#C4C4C4"/>
</mask>
<g mask="url(#mask0_718_3512)">
<path d="M63.2394 40.452C61.5521 40.452 60.1359 40.1657 58.9909 39.5932C57.8761 39.0207 56.9571 38.2976 56.2339 37.4238V38.8701C56.2339 39.2015 56.1134 39.4727 55.8723 39.6836C55.6614 39.8945 55.4053 40 55.104 40H49.9967C49.6653 40 49.3941 39.8945 49.1832 39.6836C48.9723 39.4727 48.8668 39.2015 48.8668 38.8701V9.04014C48.8668 8.7087 48.9723 8.43752 49.1832 8.2266C49.3941 8.01568 49.6653 7.91022 49.9967 7.91022H55.5108C55.8422 7.91022 56.1134 8.01568 56.3243 8.2266C56.5352 8.43752 56.6407 8.7087 56.6407 9.04014V18.7123C57.3638 17.9289 58.2678 17.2961 59.3525 16.814C60.4673 16.3018 61.763 16.0457 63.2394 16.0457C64.746 16.0457 66.0718 16.3018 67.2167 16.814C68.3919 17.2961 69.3862 18.0042 70.1997 18.9383C71.0133 19.8723 71.646 20.9872 72.098 22.2828C72.55 23.5785 72.8061 25.0398 72.8664 26.6669C72.8965 27.2394 72.9115 27.7667 72.9115 28.2488C72.9115 28.7008 72.8965 29.2281 72.8664 29.8307C72.8061 31.5181 72.5349 33.0246 72.0528 34.3504C71.6008 35.646 70.9681 36.7609 70.1545 37.695C69.341 38.5989 68.3617 39.2919 67.2167 39.774C66.0718 40.226 64.746 40.452 63.2394 40.452ZM60.7988 34.3956C61.8232 34.3956 62.6217 34.1847 63.1942 33.7628C63.7667 33.341 64.1735 32.7685 64.4145 32.0453C64.6857 31.3222 64.8514 30.5237 64.9117 29.6499C64.972 28.7158 64.972 27.7818 64.9117 26.8477C64.8514 25.9739 64.6857 25.1754 64.4145 24.4523C64.1735 23.7291 63.7667 23.1566 63.1942 22.7348C62.6217 22.313 61.8232 22.102 60.7988 22.102C59.8647 22.102 59.0964 22.313 58.4937 22.7348C57.8911 23.1265 57.4392 23.6538 57.1378 24.3167C56.8365 24.9494 56.6708 25.6425 56.6407 26.3957C56.6105 26.9682 56.5955 27.5257 56.5955 28.068C56.5955 28.6104 56.6105 29.1829 56.6407 29.7855C56.6708 30.599 56.8215 31.3523 57.0926 32.0453C57.3638 32.7384 57.8007 33.3109 58.4034 33.7628C59.006 34.1847 59.8045 34.3956 60.7988 34.3956ZM76.2498 40C75.9183 40 75.6471 39.8945 75.4362 39.6836C75.2253 39.4727 75.1198 39.2015 75.1198 38.8701V9.04014C75.1198 8.7087 75.2253 8.43752 75.4362 8.2266C75.6471 8.01568 75.9183 7.91022 76.2498 7.91022H81.583C81.9144 7.91022 82.1856 8.01568 82.3965 8.2266C82.6075 8.43752 82.7129 8.7087 82.7129 9.04014V38.8701C82.7129 39.2015 82.6075 39.4727 82.3965 39.6836C82.1856 39.8945 81.9144 40 81.583 40H76.2498ZM88.467 40C88.1356 40 87.8644 39.8945 87.6535 39.6836C87.4426 39.4727 87.3371 39.2015 87.3371 38.8701V17.6275C87.3371 17.2961 87.4426 17.0249 87.6535 16.814C87.8644 16.6031 88.1356 16.4976 88.467 16.4976H93.8003C94.1016 16.4976 94.3577 16.6031 94.5686 16.814C94.8097 17.0249 94.9302 17.2961 94.9302 17.6275V38.8701C94.9302 39.2015 94.8097 39.4727 94.5686 39.6836C94.3577 39.8945 94.1016 40 93.8003 40H88.467ZM88.4218 13.1079C88.0904 13.1079 87.8192 13.0024 87.6083 12.7915C87.3974 12.5806 87.2919 12.3094 87.2919 11.9779V7.95541C87.2919 7.62397 87.3974 7.35279 87.6083 7.14187C87.8192 6.90082 88.0904 6.7803 88.4218 6.7803H93.8003C94.1317 6.7803 94.4029 6.90082 94.6138 7.14187C94.8549 7.35279 94.9754 7.62397 94.9754 7.95541V11.9779C94.9754 12.3094 94.8549 12.5806 94.6138 12.7915C94.4029 13.0024 94.1317 13.1079 93.8003 13.1079H88.4218ZM108.988 40.452C106.758 40.452 104.785 40.0452 103.067 39.2317C101.35 38.4181 99.9789 37.243 98.9545 35.7063C97.9601 34.1395 97.4178 32.2713 97.3274 30.1019C97.2973 29.6198 97.2822 29.0172 97.2822 28.294C97.2822 27.5407 97.2973 26.923 97.3274 26.4409C97.4178 24.2414 97.9601 22.3732 98.9545 20.8365C99.9488 19.2697 101.305 18.0795 103.022 17.266C104.77 16.4524 106.758 16.0457 108.988 16.0457C111.067 16.0457 112.845 16.347 114.321 16.9496C115.798 17.5221 117.003 18.2452 117.937 19.119C118.871 19.9928 119.564 20.8968 120.016 21.8309C120.498 22.7348 120.754 23.5333 120.785 24.2263C120.815 24.5276 120.709 24.7988 120.468 25.0398C120.227 25.2508 119.956 25.3562 119.655 25.3562H113.915C113.583 25.3562 113.327 25.2809 113.146 25.1302C112.966 24.9796 112.8 24.7536 112.649 24.4523C112.288 23.5182 111.821 22.8553 111.248 22.4636C110.706 22.0719 109.998 21.8761 109.124 21.8761C107.919 21.8761 106.984 22.2678 106.322 23.0512C105.689 23.8346 105.342 25.0398 105.282 26.6669C105.252 27.8722 105.252 28.9418 105.282 29.8759C105.342 31.5331 105.689 32.7384 106.322 33.4916C106.984 34.2449 107.919 34.6216 109.124 34.6216C110.058 34.6216 110.796 34.4257 111.338 34.034C111.881 33.6423 112.318 32.9794 112.649 32.0453C112.8 31.744 112.966 31.5181 113.146 31.3674C113.327 31.2167 113.583 31.1414 113.915 31.1414H119.655C119.956 31.1414 120.227 31.2619 120.468 31.503C120.709 31.7139 120.815 31.97 120.785 32.2713C120.754 32.7836 120.604 33.3862 120.333 34.0792C120.061 34.7421 119.64 35.4502 119.067 36.2035C118.495 36.9567 117.741 37.6648 116.807 38.3277C115.903 38.9605 114.804 39.4727 113.508 39.8644C112.212 40.2561 110.706 40.452 108.988 40.452ZM123.715 40C123.384 40 123.113 39.8945 122.902 39.6836C122.691 39.4727 122.585 39.2015 122.585 38.8701V9.04014C122.585 8.7087 122.691 8.43752 122.902 8.2266C123.113 8.01568 123.384 7.91022 123.715 7.91022H128.958C129.259 7.91022 129.516 8.01568 129.726 8.2266C129.968 8.43752 130.088 8.7087 130.088 9.04014V24.1811L136.37 17.266C136.551 17.0551 136.747 16.8743 136.958 16.7236C137.169 16.573 137.47 16.4976 137.862 16.4976H143.918C144.189 16.4976 144.415 16.6031 144.596 16.814C144.807 16.9948 144.913 17.2208 144.913 17.492C144.913 17.6125 144.883 17.7481 144.822 17.8987C144.762 18.0494 144.672 18.1699 144.551 18.2603L136.416 27.0285L145.681 38.2825C145.922 38.5236 146.043 38.7646 146.043 39.0057C146.043 39.2769 145.937 39.5179 145.726 39.7288C145.545 39.9096 145.304 40 145.003 40H138.811C138.359 40 138.028 39.9247 137.817 39.774C137.606 39.5932 137.41 39.4124 137.229 39.2317L130.088 30.6442V38.8701C130.088 39.2015 129.968 39.4727 129.726 39.6836C129.516 39.8945 129.259 40 128.958 40H123.715ZM147.624 40C147.292 40 147.021 39.8945 146.81 39.6836C146.599 39.4727 146.494 39.2015 146.494 38.8701V33.1301C146.494 32.8288 146.599 32.5726 146.81 32.3617C147.021 32.1207 147.292 32.0002 147.624 32.0002H153.319C153.65 32.0002 153.921 32.1207 154.132 32.3617C154.373 32.5726 154.494 32.8288 154.494 33.1301V38.8701C154.494 39.2015 154.373 39.4727 154.132 39.6836C153.921 39.8945 153.65 40 153.319 40H147.624Z" fill="black"/>
<path fill-rule="evenodd" clip-rule="evenodd" d="M26.9784 3.29179C26.6509 2.63698 26.0582 2.1543 25.3507 1.96639C24.6429 1.77846 23.8887 1.90345 23.2797 2.30953C22.3968 2.89819 21.7125 3.73409 21.1804 4.55553C20.6333 5.39942 20.1517 6.37683 19.7258 7.40335C18.8743 9.45564 18.1589 11.9167 17.5837 14.3819C16.8531 17.5129 16.3124 20.8115 16.0173 23.5189C14.7814 22.6858 14.0643 21.7518 13.6047 20.7967C12.7687 19.0596 12.5902 16.8817 12.5902 14.0235C12.5902 12.9912 11.9684 12.0605 11.0146 11.6654C10.0608 11.2704 8.963 11.4887 8.23302 12.2187C4.74483 15.7069 3 20.2839 3 24.8523C3 29.4208 4.74483 33.9977 8.23302 37.4861C15.2104 44.4633 26.523 44.4633 33.5002 37.4861C36.9885 33.9977 38.7333 29.4208 38.7333 24.8523C38.7333 20.2839 36.9885 15.7069 33.5002 12.2187C31.991 10.7093 30.9986 9.70271 30.0606 8.47315C29.1338 7.25842 28.2127 5.76025 26.9784 3.29179ZM26.281 35.3714C23.2907 38.3618 18.4425 38.3618 15.4523 35.3714C13.9571 33.8762 13.2095 31.9168 13.2095 29.9571C13.2095 29.9571 15.4523 31.2333 19.5906 31.2333C19.5906 28.6809 20.8667 21.0237 22.781 19.7475C24.0572 22.2999 24.7859 23.0475 26.281 24.5427C27.7762 26.0379 28.5238 27.9973 28.5238 29.9571C28.5238 31.9168 27.7762 33.8762 26.281 35.3714Z" fill="#7634BF"/>
</g>
</svg>
